<svg width="64" height="64" viewBox="0 0 64 64" fill="none" xmlns="http://www.w3.org/2000/svg">
  <!-- Phone Frame -->
  <rect x="16" y="8" width="32" height="48" rx="6" fill="#E5E7EB" stroke="#9CA3AF" stroke-width="2"/>
  <rect x="18" y="12" width="28" height="36" rx="4" fill="#1F2937"/>
  
  <!-- Rocket Body -->
  <ellipse cx="32" cy="26" rx="4" ry="8" fill="#FFFFFF"/>
  
  <!-- Rocket Nose -->
  <path d="M32 18 L28 26 L36 26 Z" fill="#10B981"/>
  
  <!-- Rocket Window -->
  <circle cx="32" cy="22" r="2" fill="#1F2937"/>
  <circle cx="32" cy="22" r="1.2" fill="#10B981"/>
  
  <!-- Rocket Fins -->
  <path d="M28 30 L26 34 L28 34 Z" fill="#10B981"/>
  <path d="M36 30 L38 34 L36 34 Z" fill="#10B981"/>
  
  <!-- Rocket Flame -->
  <path d="M30 34 L32 40 L34 34 Z" fill="#F59E0B"/>
  <path d="M31 34 L32 38 L33 34 Z" fill="#EF4444"/>
  
  <!-- Clouds -->
  <circle cx="22" cy="20" r="2" fill="#10B981" opacity="0.6"/>
  <circle cx="24" cy="20" r="1.5" fill="#10B981" opacity="0.6"/>
  <circle cx="42" cy="24" r="2" fill="#10B981" opacity="0.6"/>
  <circle cx="44" cy="24" r="1.5" fill="#10B981" opacity="0.6"/>
  <circle cx="20" cy="32" r="1.5" fill="#10B981" opacity="0.6"/>
  <circle cx="46" cy="30" r="1.5" fill="#10B981" opacity="0.6"/>
  
  <!-- Stars -->
  <path d="M24 16 L24.5 17 L25 16 L24.5 15 Z" fill="#10B981"/>
  <path d="M40 18 L40.5 19 L41 18 L40.5 17 Z" fill="#10B981"/>
  <path d="M26 36 L26.5 37 L27 36 L26.5 35 Z" fill="#10B981"/>
  <path d="M38 38 L38.5 39 L39 38 L38.5 37 Z" fill="#10B981"/>
  
  <!-- Phone Home Button -->
  <circle cx="32" cy="52" r="2" fill="#9CA3AF"/>
  <circle cx="32" cy="52" r="1" fill="#6B7280"/>
</svg>
